<mxfile host="app.diagrams.net" agent="Mozilla/5.0 (Windows NT 10.0; Win64; x64) AppleWebKit/537.36 (KHTML, like Gecko) Chrome/131.0.0.0 Safari/537.36" version="24.9.0">
  <diagram name="Página-1" id="u8i8vwaDSWofQYIDLc34">
    <mxGraphModel dx="322" dy="570" grid="1" gridSize="10" guides="1" tooltips="1" connect="1" arrows="1" fold="1" page="1" pageScale="1" pageWidth="827" pageHeight="1169" math="0" shadow="0">
      <root>
        <mxCell id="0" />
        <mxCell id="1" parent="0" />
        <mxCell id="5GwAWgMUtaiw1dpmW7ta-68" style="edgeStyle=orthogonalEdgeStyle;rounded=0;orthogonalLoop=1;jettySize=auto;html=1;" edge="1" parent="1">
          <mxGeometry relative="1" as="geometry">
            <mxPoint x="390" y="140" as="targetPoint" />
            <mxPoint x="390" y="100" as="sourcePoint" />
          </mxGeometry>
        </mxCell>
        <mxCell id="5GwAWgMUtaiw1dpmW7ta-69" style="edgeStyle=orthogonalEdgeStyle;rounded=0;orthogonalLoop=1;jettySize=auto;html=1;entryX=0.5;entryY=0;entryDx=0;entryDy=0;" edge="1" parent="1" source="5GwAWgMUtaiw1dpmW7ta-2" target="5GwAWgMUtaiw1dpmW7ta-4">
          <mxGeometry relative="1" as="geometry" />
        </mxCell>
        <mxCell id="5GwAWgMUtaiw1dpmW7ta-2" value="&quot;Total de alunos?&quot;" style="shape=display;whiteSpace=wrap;html=1;" vertex="1" parent="1">
          <mxGeometry x="305" y="150" width="160" height="50" as="geometry" />
        </mxCell>
        <mxCell id="5GwAWgMUtaiw1dpmW7ta-70" style="edgeStyle=orthogonalEdgeStyle;rounded=0;orthogonalLoop=1;jettySize=auto;html=1;" edge="1" parent="1" source="5GwAWgMUtaiw1dpmW7ta-4">
          <mxGeometry relative="1" as="geometry">
            <mxPoint x="385" y="360" as="targetPoint" />
          </mxGeometry>
        </mxCell>
        <mxCell id="5GwAWgMUtaiw1dpmW7ta-4" value="a" style="shape=manualInput;whiteSpace=wrap;html=1;" vertex="1" parent="1">
          <mxGeometry x="320" y="250" width="130" height="80" as="geometry" />
        </mxCell>
        <mxCell id="5GwAWgMUtaiw1dpmW7ta-73" style="edgeStyle=orthogonalEdgeStyle;rounded=0;orthogonalLoop=1;jettySize=auto;html=1;" edge="1" parent="1" source="5GwAWgMUtaiw1dpmW7ta-6">
          <mxGeometry relative="1" as="geometry">
            <mxPoint x="390" y="680" as="targetPoint" />
          </mxGeometry>
        </mxCell>
        <mxCell id="5GwAWgMUtaiw1dpmW7ta-6" value="" style="strokeWidth=2;html=1;shape=mxgraph.flowchart.decision;whiteSpace=wrap;" vertex="1" parent="1">
          <mxGeometry x="320" y="570" width="140" height="80" as="geometry" />
        </mxCell>
        <mxCell id="5GwAWgMUtaiw1dpmW7ta-74" style="edgeStyle=orthogonalEdgeStyle;rounded=0;orthogonalLoop=1;jettySize=auto;html=1;" edge="1" parent="1" source="5GwAWgMUtaiw1dpmW7ta-7">
          <mxGeometry relative="1" as="geometry">
            <mxPoint x="385" y="770" as="targetPoint" />
          </mxGeometry>
        </mxCell>
        <mxCell id="5GwAWgMUtaiw1dpmW7ta-7" value="" style="shape=display;whiteSpace=wrap;html=1;" vertex="1" parent="1">
          <mxGeometry x="305" y="690" width="160" height="50" as="geometry" />
        </mxCell>
        <mxCell id="5GwAWgMUtaiw1dpmW7ta-75" style="edgeStyle=orthogonalEdgeStyle;rounded=0;orthogonalLoop=1;jettySize=auto;html=1;" edge="1" parent="1" source="5GwAWgMUtaiw1dpmW7ta-8">
          <mxGeometry relative="1" as="geometry">
            <mxPoint x="380" y="890" as="targetPoint" />
          </mxGeometry>
        </mxCell>
        <mxCell id="5GwAWgMUtaiw1dpmW7ta-8" value="" style="shape=manualInput;whiteSpace=wrap;html=1;" vertex="1" parent="1">
          <mxGeometry x="315" y="775" width="130" height="80" as="geometry" />
        </mxCell>
        <mxCell id="5GwAWgMUtaiw1dpmW7ta-76" style="edgeStyle=orthogonalEdgeStyle;rounded=0;orthogonalLoop=1;jettySize=auto;html=1;" edge="1" parent="1" source="5GwAWgMUtaiw1dpmW7ta-9">
          <mxGeometry relative="1" as="geometry">
            <mxPoint x="380" y="990" as="targetPoint" />
          </mxGeometry>
        </mxCell>
        <mxCell id="5GwAWgMUtaiw1dpmW7ta-9" value="" style="verticalLabelPosition=bottom;verticalAlign=top;html=1;shape=mxgraph.basic.patternFillRect;fillStyle=vert;step=5;fillStrokeWidth=0.2;fillStrokeColor=#dddddd;" vertex="1" parent="1">
          <mxGeometry x="320" y="900" width="120" height="60" as="geometry" />
        </mxCell>
        <mxCell id="5GwAWgMUtaiw1dpmW7ta-77" style="edgeStyle=orthogonalEdgeStyle;rounded=0;orthogonalLoop=1;jettySize=auto;html=1;entryX=0;entryY=0.5;entryDx=0;entryDy=0;entryPerimeter=0;" edge="1" parent="1" source="5GwAWgMUtaiw1dpmW7ta-10" target="5GwAWgMUtaiw1dpmW7ta-7">
          <mxGeometry relative="1" as="geometry">
            <mxPoint x="240" y="700" as="targetPoint" />
            <Array as="points">
              <mxPoint x="285" y="1030" />
              <mxPoint x="285" y="715" />
            </Array>
          </mxGeometry>
        </mxCell>
        <mxCell id="5GwAWgMUtaiw1dpmW7ta-10" value="" style="verticalLabelPosition=bottom;verticalAlign=top;html=1;shape=mxgraph.basic.patternFillRect;fillStyle=vert;step=5;fillStrokeWidth=0.2;fillStrokeColor=#dddddd;" vertex="1" parent="1">
          <mxGeometry x="320" y="1000" width="120" height="60" as="geometry" />
        </mxCell>
        <mxCell id="5GwAWgMUtaiw1dpmW7ta-82" style="edgeStyle=orthogonalEdgeStyle;rounded=0;orthogonalLoop=1;jettySize=auto;html=1;" edge="1" parent="1" source="5GwAWgMUtaiw1dpmW7ta-11">
          <mxGeometry relative="1" as="geometry">
            <mxPoint x="619.9999999999999" y="720" as="targetPoint" />
          </mxGeometry>
        </mxCell>
        <mxCell id="5GwAWgMUtaiw1dpmW7ta-11" value="" style="verticalLabelPosition=bottom;verticalAlign=top;html=1;shape=mxgraph.basic.patternFillRect;fillStyle=vert;step=5;fillStrokeWidth=0.2;fillStrokeColor=#dddddd;" vertex="1" parent="1">
          <mxGeometry x="560" y="620" width="120" height="60" as="geometry" />
        </mxCell>
        <mxCell id="5GwAWgMUtaiw1dpmW7ta-83" style="edgeStyle=orthogonalEdgeStyle;rounded=0;orthogonalLoop=1;jettySize=auto;html=1;" edge="1" parent="1" source="5GwAWgMUtaiw1dpmW7ta-12">
          <mxGeometry relative="1" as="geometry">
            <mxPoint x="610.0000000000001" y="800" as="targetPoint" />
          </mxGeometry>
        </mxCell>
        <mxCell id="5GwAWgMUtaiw1dpmW7ta-12" value="" style="shape=display;whiteSpace=wrap;html=1;" vertex="1" parent="1">
          <mxGeometry x="530" y="725" width="160" height="50" as="geometry" />
        </mxCell>
        <mxCell id="5GwAWgMUtaiw1dpmW7ta-29" value="" style="endArrow=open;endFill=1;endSize=12;html=1;rounded=0;" edge="1" parent="1">
          <mxGeometry width="160" relative="1" as="geometry">
            <mxPoint x="640" y="649.9999999999999" as="sourcePoint" />
            <mxPoint x="600" y="649.9999999999999" as="targetPoint" />
          </mxGeometry>
        </mxCell>
        <mxCell id="5GwAWgMUtaiw1dpmW7ta-32" value="m" style="text;html=1;align=center;verticalAlign=middle;whiteSpace=wrap;rounded=0;" vertex="1" parent="1">
          <mxGeometry x="550" y="635" width="60" height="30" as="geometry" />
        </mxCell>
        <mxCell id="5GwAWgMUtaiw1dpmW7ta-33" value="s/a" style="text;html=1;align=center;verticalAlign=middle;whiteSpace=wrap;rounded=0;" vertex="1" parent="1">
          <mxGeometry x="630" y="635" width="60" height="30" as="geometry" />
        </mxCell>
        <mxCell id="5GwAWgMUtaiw1dpmW7ta-34" value="&quot;Média=&quot;, m" style="text;html=1;align=center;verticalAlign=middle;whiteSpace=wrap;rounded=0;" vertex="1" parent="1">
          <mxGeometry x="575" y="735" width="70" height="30" as="geometry" />
        </mxCell>
        <mxCell id="5GwAWgMUtaiw1dpmW7ta-72" style="edgeStyle=orthogonalEdgeStyle;rounded=0;orthogonalLoop=1;jettySize=auto;html=1;" edge="1" parent="1" source="5GwAWgMUtaiw1dpmW7ta-37">
          <mxGeometry relative="1" as="geometry">
            <mxPoint x="385" y="560" as="targetPoint" />
          </mxGeometry>
        </mxCell>
        <mxCell id="5GwAWgMUtaiw1dpmW7ta-37" value="" style="verticalLabelPosition=bottom;verticalAlign=top;html=1;shape=mxgraph.basic.patternFillRect;fillStyle=vert;step=5;fillStrokeWidth=0.2;fillStrokeColor=#dddddd;" vertex="1" parent="1">
          <mxGeometry x="325" y="480" width="120" height="60" as="geometry" />
        </mxCell>
        <mxCell id="5GwAWgMUtaiw1dpmW7ta-42" value="" style="endArrow=open;endFill=1;endSize=12;html=1;rounded=0;" edge="1" parent="1">
          <mxGeometry width="160" relative="1" as="geometry">
            <mxPoint x="405" y="509.57999999999987" as="sourcePoint" />
            <mxPoint x="365" y="509.57999999999987" as="targetPoint" />
          </mxGeometry>
        </mxCell>
        <mxCell id="5GwAWgMUtaiw1dpmW7ta-71" style="edgeStyle=orthogonalEdgeStyle;rounded=0;orthogonalLoop=1;jettySize=auto;html=1;" edge="1" parent="1" source="5GwAWgMUtaiw1dpmW7ta-46">
          <mxGeometry relative="1" as="geometry">
            <mxPoint x="385" y="470" as="targetPoint" />
          </mxGeometry>
        </mxCell>
        <mxCell id="5GwAWgMUtaiw1dpmW7ta-46" value="" style="verticalLabelPosition=bottom;verticalAlign=top;html=1;shape=mxgraph.basic.patternFillRect;fillStyle=vert;step=5;fillStrokeWidth=0.2;fillStrokeColor=#dddddd;" vertex="1" parent="1">
          <mxGeometry x="325" y="370" width="120" height="60" as="geometry" />
        </mxCell>
        <mxCell id="5GwAWgMUtaiw1dpmW7ta-47" value="" style="endArrow=open;endFill=1;endSize=12;html=1;rounded=0;" edge="1" parent="1">
          <mxGeometry width="160" relative="1" as="geometry">
            <mxPoint x="405" y="399.5799999999999" as="sourcePoint" />
            <mxPoint x="365" y="399.5799999999999" as="targetPoint" />
          </mxGeometry>
        </mxCell>
        <mxCell id="5GwAWgMUtaiw1dpmW7ta-48" value="s" style="text;html=1;align=center;verticalAlign=middle;whiteSpace=wrap;rounded=0;" vertex="1" parent="1">
          <mxGeometry x="315" y="385" width="60" height="30" as="geometry" />
        </mxCell>
        <mxCell id="5GwAWgMUtaiw1dpmW7ta-49" value="0" style="text;html=1;align=center;verticalAlign=middle;whiteSpace=wrap;rounded=0;" vertex="1" parent="1">
          <mxGeometry x="400" y="385" width="60" height="30" as="geometry" />
        </mxCell>
        <mxCell id="5GwAWgMUtaiw1dpmW7ta-50" value="c" style="text;html=1;align=center;verticalAlign=middle;whiteSpace=wrap;rounded=0;" vertex="1" parent="1">
          <mxGeometry x="315" y="495" width="60" height="30" as="geometry" />
        </mxCell>
        <mxCell id="5GwAWgMUtaiw1dpmW7ta-51" value="1" style="text;html=1;align=center;verticalAlign=middle;whiteSpace=wrap;rounded=0;" vertex="1" parent="1">
          <mxGeometry x="390" y="495" width="60" height="30" as="geometry" />
        </mxCell>
        <mxCell id="5GwAWgMUtaiw1dpmW7ta-52" value="c&amp;nbsp;&lt;span style=&quot;color: rgb(31, 31, 31); font-family: &amp;quot;Google Sans&amp;quot;, Arial, sans-serif; text-align: left; background-color: rgb(255, 255, 255);&quot;&gt;&lt;font&gt;≤ a&lt;/font&gt;&lt;/span&gt;" style="text;html=1;align=center;verticalAlign=middle;whiteSpace=wrap;rounded=0;" vertex="1" parent="1">
          <mxGeometry x="355" y="595" width="60" height="30" as="geometry" />
        </mxCell>
        <mxCell id="5GwAWgMUtaiw1dpmW7ta-53" value="c, &quot;a.nota?&quot;" style="text;html=1;align=center;verticalAlign=middle;whiteSpace=wrap;rounded=0;" vertex="1" parent="1">
          <mxGeometry x="360" y="700" width="70" height="30" as="geometry" />
        </mxCell>
        <mxCell id="5GwAWgMUtaiw1dpmW7ta-54" value="n" style="text;html=1;align=center;verticalAlign=middle;whiteSpace=wrap;rounded=0;" vertex="1" parent="1">
          <mxGeometry x="354" y="805" width="60" height="30" as="geometry" />
        </mxCell>
        <mxCell id="5GwAWgMUtaiw1dpmW7ta-55" value="s&amp;nbsp;" style="text;html=1;align=center;verticalAlign=middle;whiteSpace=wrap;rounded=0;" vertex="1" parent="1">
          <mxGeometry x="305" y="915" width="60" height="30" as="geometry" />
        </mxCell>
        <mxCell id="5GwAWgMUtaiw1dpmW7ta-60" value="" style="endArrow=open;endFill=1;endSize=12;html=1;rounded=0;" edge="1" parent="1">
          <mxGeometry width="160" relative="1" as="geometry">
            <mxPoint x="390" y="929.7099999999999" as="sourcePoint" />
            <mxPoint x="350" y="929.7099999999999" as="targetPoint" />
          </mxGeometry>
        </mxCell>
        <mxCell id="5GwAWgMUtaiw1dpmW7ta-62" value="s + n" style="text;html=1;align=center;verticalAlign=middle;whiteSpace=wrap;rounded=0;" vertex="1" parent="1">
          <mxGeometry x="380" y="915" width="60" height="30" as="geometry" />
        </mxCell>
        <mxCell id="5GwAWgMUtaiw1dpmW7ta-63" value="" style="endArrow=open;endFill=1;endSize=12;html=1;rounded=0;" edge="1" parent="1">
          <mxGeometry width="160" relative="1" as="geometry">
            <mxPoint x="390" y="1029.71" as="sourcePoint" />
            <mxPoint x="350" y="1029.71" as="targetPoint" />
          </mxGeometry>
        </mxCell>
        <mxCell id="5GwAWgMUtaiw1dpmW7ta-65" value="c" style="text;html=1;align=center;verticalAlign=middle;whiteSpace=wrap;rounded=0;" vertex="1" parent="1">
          <mxGeometry x="305" y="1015" width="60" height="30" as="geometry" />
        </mxCell>
        <mxCell id="5GwAWgMUtaiw1dpmW7ta-67" value="c + 1" style="text;html=1;align=center;verticalAlign=middle;whiteSpace=wrap;rounded=0;" vertex="1" parent="1">
          <mxGeometry x="380" y="1015" width="60" height="30" as="geometry" />
        </mxCell>
        <mxCell id="5GwAWgMUtaiw1dpmW7ta-80" value="Fim" style="rounded=1;whiteSpace=wrap;html=1;arcSize=50;" vertex="1" parent="1">
          <mxGeometry x="550" y="810" width="130" height="65" as="geometry" />
        </mxCell>
        <mxCell id="5GwAWgMUtaiw1dpmW7ta-81" style="edgeStyle=orthogonalEdgeStyle;rounded=0;orthogonalLoop=1;jettySize=auto;html=1;exitX=1;exitY=0.5;exitDx=0;exitDy=0;exitPerimeter=0;entryX=0.584;entryY=0.028;entryDx=0;entryDy=0;entryPerimeter=0;" edge="1" parent="1" source="5GwAWgMUtaiw1dpmW7ta-6" target="5GwAWgMUtaiw1dpmW7ta-11">
          <mxGeometry relative="1" as="geometry">
            <Array as="points">
              <mxPoint x="630" y="610" />
            </Array>
          </mxGeometry>
        </mxCell>
        <mxCell id="5GwAWgMUtaiw1dpmW7ta-84" value="Inicío" style="rounded=1;whiteSpace=wrap;html=1;arcSize=50;" vertex="1" parent="1">
          <mxGeometry x="325" y="20" width="130" height="65" as="geometry" />
        </mxCell>
      </root>
    </mxGraphModel>
  </diagram>
</mxfile>
